<svg width="102" height="128" viewBox="0 0 102 128" fill="none" xmlns="http://www.w3.org/2000/svg">
<g clip-path="url(#clip0_3471_716)">
<path d="M35.0529 48.1392C36.0934 46.7764 37.0111 45.5774 38.0808 44.1796C32.5979 41.2903 27.2144 38.4595 21.5971 35.5C23.2747 34.418 24.7477 33.4646 26.3902 32.406C24.4671 29.2886 22.6142 26.2882 20.5625 22.9603C24.245 23.7791 27.5242 24.5102 31.0723 25.2998C31.3353 22.9427 31.5867 20.6968 31.8789 18.0883C35.6608 20.9132 39.0336 23.8493 42.8096 26.411C42.2075 20.574 40.9333 14.9065 40.0389 8.73025C41.8919 10.0989 43.4467 11.2394 45.1886 12.5261C47.1117 8.32668 48.9413 4.34953 50.9345 0.00390625C52.8985 4.2735 54.7164 8.23895 56.6571 12.4618C58.3522 11.2686 59.9246 10.1632 61.795 8.84722C60.965 14.9767 59.6265 20.65 59.2231 26.5865C62.7361 23.8025 66.2433 21.0185 69.9901 18.0473C70.2707 20.6383 70.5162 22.8784 70.7792 25.3115C74.3156 24.5277 77.6416 23.7849 81.3066 22.972C79.2899 26.2473 77.4545 29.2243 75.5081 32.3885C77.0337 33.3945 78.495 34.3595 80.2486 35.5175C74.6956 38.4419 69.3355 41.2727 63.8117 44.1796C64.8287 45.5248 65.7406 46.7179 66.7928 48.1099C65.5945 48.2912 64.6066 48.4024 63.6363 48.5895C62.3854 48.8293 61.1228 49.0457 59.9129 49.4259C56.3823 50.5313 53.9975 52.8123 52.9161 56.4151C51.899 59.8016 51.4781 63.2757 51.332 66.7908C51.3086 67.405 51.2736 68.0191 51.2385 68.6273C51.104 68.6449 50.9696 68.6683 50.8352 68.6858C50.7533 68.2589 50.654 67.8319 50.6014 67.3991C50.2389 64.4279 50.087 61.41 49.4908 58.4856C48.2457 52.3386 44.9197 49.4259 38.6712 48.6129C37.5489 48.4667 36.4324 48.3205 35.0588 48.145L35.0529 48.1392Z" fill="white"/>
<path d="M-0.0117329 76.7876C1.79446 76.6413 3.62403 76.6121 5.41268 76.3197C8.04305 75.8927 10.691 75.4424 13.257 74.7171C16.4369 73.8164 18.4009 71.5939 19.3186 68.3829C20.2714 65.0433 20.7448 61.651 20.8442 58.1885C20.8676 57.3814 20.9202 56.5801 20.9728 55.5273C21.9314 56.1122 21.7035 56.7965 21.7151 57.3346C21.7736 60.6684 22.1418 63.9554 22.9602 67.1898C23.1297 67.8682 23.3635 68.5291 23.5798 69.1959C24.404 71.7284 26.0933 73.4304 28.5483 74.4188C31.2955 75.5301 34.1597 76.074 37.0941 76.3314C38.9236 76.4893 40.759 76.618 42.5945 76.7642C42.612 76.8928 42.6295 77.0157 42.6471 77.1443C42.2204 77.2145 41.7995 77.3023 41.3728 77.3549C38.1521 77.7409 34.9255 78.1211 31.7047 78.5013C31.5177 78.5246 31.3306 78.5714 31.1436 78.6182C26.5901 79.671 23.6441 82.3439 22.9017 87.0638C22.4166 90.1461 22.1126 93.2518 21.7385 96.3517C21.6567 97.0126 21.6333 97.6793 21.5632 98.6034C20.663 97.808 20.891 97.0652 20.8793 96.4218C20.8033 93.088 20.3649 89.8127 19.6225 86.5667C18.6756 82.4258 16.1914 79.8874 12.0704 78.8054C8.77956 77.9398 5.4536 77.4719 2.06334 77.3666C1.37944 77.3432 0.695545 77.3666 0.0116482 77.3666C-4.23081e-05 77.1677 -0.00588758 76.9747 -0.0175781 76.7759L-0.0117329 76.7876Z" fill="white"/>
<path d="M29.7363 106.415C31.9399 106.233 34.167 106.181 36.3414 105.836C38.7205 105.461 41.0878 104.923 43.4025 104.251C45.7289 103.572 47.3072 101.923 48.2658 99.6887C49.4874 96.8404 50.0369 93.8399 50.3116 90.7752C50.4753 88.9621 50.5864 87.1431 50.7208 85.3242L51.1241 85.2891C51.1884 85.7979 51.2527 86.3009 51.3112 86.8097C51.697 89.9681 52.0711 93.1322 52.4802 96.2847C52.5504 96.8462 52.7725 97.396 52.9303 97.9458C53.9766 101.554 56.2563 103.835 59.9505 104.789C63.3057 105.654 66.7018 106.105 70.1505 106.239C70.8168 106.263 71.4832 106.239 72.1496 106.239C72.1671 106.409 72.1846 106.573 72.208 106.742C71.7696 106.83 71.3371 106.959 70.8928 106.994C67.3974 107.275 63.9194 107.52 60.4824 108.357C56.3323 109.363 53.8422 111.837 52.7608 115.942C51.8957 119.235 51.4573 122.569 51.3287 125.955C51.3053 126.622 51.2819 127.289 51.2644 127.956C51.1066 127.967 50.9488 127.979 50.7968 127.991C50.7325 127.482 50.639 126.979 50.6097 126.47C50.411 122.961 50.1597 119.463 49.1484 116.071C48.8737 115.159 48.5347 114.258 48.1489 113.386C47.2546 111.369 45.7699 109.971 43.7006 109.152C40.8189 108.011 37.8086 107.561 34.7515 107.28C33.0739 107.128 31.3905 107.023 29.7129 106.894C29.7246 106.731 29.7363 106.573 29.7421 106.409L29.7363 106.415Z" fill="white"/>
<path d="M59.25 76.7763C61.0854 76.636 62.9208 76.5131 64.7504 76.3435C67.6789 76.0745 70.5489 75.5539 73.302 74.4368C75.757 73.4425 77.4171 71.7405 78.2939 69.2314C79.5974 65.5116 79.9539 61.6456 80.1819 57.7503C80.2228 57.0894 80.2637 56.4343 80.2988 55.7734C80.4566 55.7734 80.6145 55.7734 80.7723 55.7734C80.9067 57.4228 80.9476 59.0955 81.2048 60.7273C81.6491 63.4879 82.1108 66.2603 82.8006 68.9682C83.4903 71.6762 85.3433 73.4425 87.9561 74.4778C90.6566 75.5481 93.4565 76.0686 96.3207 76.3377C98.1444 76.5131 99.9798 76.6359 101.991 76.7939C101.435 77.6302 100.751 77.3378 100.202 77.3553C96.689 77.4782 93.2286 77.911 89.8149 78.8234C85.7115 79.9171 83.0636 82.3736 82.3154 86.5788C81.7367 89.8366 81.3802 93.1353 80.9476 96.4164C80.8658 97.0364 80.86 97.6739 80.8132 98.4343C79.913 97.9605 80.2696 97.2411 80.1994 96.6913C79.802 93.5973 79.5272 90.4799 79.0538 87.3977C78.288 82.3677 75.2251 79.4492 70.3034 78.5602C67.2989 78.0163 64.2477 77.7472 61.2198 77.3787C60.5652 77.2969 59.8988 77.3203 59.2441 77.2969V76.7763H59.25Z" fill="white"/>
</g>
<defs>
<clipPath id="clip0_3471_716">
<rect width="102" height="128" fill="white"/>
</clipPath>
</defs>
</svg>
