<svg width="61" height="64" viewBox="0 0 61 64" fill="none" xmlns="http://www.w3.org/2000/svg">
<path d="M52.8027 7.23428L46.8084 19.3867C46.7265 19.6274 46.8887 19.8804 47.1329 19.8926L51.8432 20.1281C52.0525 20.1386 52.2182 20.3218 52.2095 20.4962L51.9531 25.6251C51.9443 25.7996 51.7612 25.9653 51.5518 25.9548L40.4915 25.4018C40.317 25.3931 40.1513 25.2099 40.16 25.0355L40.4165 19.9066C40.4182 19.8717 40.4217 19.8019 40.4583 19.7687L40.4601 19.7338C40.4252 19.7321 40.4252 19.7321 40.4252 19.7321L46.5607 7.55178C46.6776 7.31278 46.5154 7.05982 46.2711 7.04761L41.4213 6.80512C41.2469 6.7964 41.0812 6.61322 41.0899 6.43877L41.3463 1.30984C41.355 1.13539 41.5382 0.96966 41.7127 0.978383L52.773 1.53141C52.9824 1.54187 53.1481 1.72505 53.1394 1.8995L52.8951 6.78419C52.8864 6.95865 52.8428 7.13135 52.8027 7.23428Z" fill="#F1F1F1"/>
<path d="M38.9667 15.5939L35.3342 28.6483C35.2984 28.9001 35.5048 29.1185 35.7471 29.0851L40.4191 28.4416C40.6267 28.413 40.8236 28.5622 40.8474 28.7352L41.5482 33.8225C41.572 33.9955 41.4228 34.1924 41.2152 34.221L30.2446 35.7322C30.0716 35.756 29.8747 35.6068 29.8509 35.4338L29.1501 30.3465C29.1453 30.3119 29.1358 30.2427 29.1656 30.2033L29.1609 30.1687C29.1263 30.1735 29.1263 30.1735 29.1263 30.1735L32.8924 17.0654C32.9628 16.8089 32.7564 16.5904 32.5142 16.6238L27.7037 17.2865C27.5307 17.3103 27.3338 17.1611 27.31 16.9881L26.6092 11.9008C26.5854 11.7277 26.7346 11.5309 26.9076 11.507L37.8782 9.99582C38.0858 9.96722 38.2827 10.1164 38.3065 10.2895L38.9739 15.1345C38.9977 15.3075 38.987 15.4853 38.9667 15.5939Z" fill="#F1F1F1"/>
<path d="M19.4583 26.402C19.3186 26.3997 19.1468 26.2222 19.149 26.0825L19.3023 16.6515C19.3051 16.4769 19.1333 16.2994 18.9936 16.2971L17.3169 16.2699C17.1423 16.267 16.9648 16.4388 16.962 16.6135L16.8088 26.0445C16.8065 26.1842 16.6639 26.3566 16.4544 26.3532L11.3896 26.2709C11.2149 26.268 11.078 26.0911 11.0803 25.9514L11.3635 8.52153C11.4259 4.67927 14.5496 1.65541 18.3919 1.71783C22.2342 1.78025 25.258 4.90399 25.1956 8.74625L24.9124 26.1761C24.9102 26.3158 24.7327 26.4877 24.593 26.4854L19.4583 26.402ZM18.2815 10.6604C19.1548 10.6746 19.8997 9.98789 19.9144 9.07972C19.9286 8.20648 19.207 7.46104 18.3338 7.44685C17.4256 7.4321 16.7151 8.15427 16.7009 9.02751C16.6861 9.93568 17.3734 10.6456 18.2815 10.6604Z" fill="#F1F1F1"/>
<path d="M5.91887 18.2477C4.21404 18.4018 2.69968 17.1707 2.54241 15.4311C2.38829 13.7263 3.65417 12.2088 5.359 12.0547C7.09861 11.8974 8.61612 13.1633 8.77024 14.8681C8.92751 16.6077 7.65848 18.0904 5.91887 18.2477ZM8.55975 18.3597C8.68948 18.2428 8.83808 18.3346 8.85067 18.4737L9.60555 26.8239L9.61184 26.8935L9.86032 29.6421C10.2063 33.4692 7.38973 36.8457 3.56257 37.1917L2.5188 37.286C2.37963 37.2986 2.22788 37.172 2.2153 37.0329L1.7435 31.814C1.73092 31.6748 1.8575 31.5231 1.99667 31.5105L2.86648 31.4319C3.59712 31.3658 4.13512 30.7209 4.06907 29.9902L3.06885 18.9263C3.05312 18.7523 3.25873 18.6987 3.37254 18.7936C4.15351 19.2842 5.08956 19.5504 6.06375 19.4623C7.07272 19.3711 7.91108 18.9445 8.55975 18.3597Z" fill="#F1F1F1"/>
<path d="M9.78708 43.1642C9.17601 43.1386 8.64546 43.6265 8.61845 44.2716L8.1721 54.9314C8.14509 55.5765 8.63299 56.107 9.24407 56.1326C9.88909 56.1596 10.4536 55.6731 10.4806 55.0281L10.6341 51.3616C10.6412 51.1919 10.7502 51.0264 10.9539 51.035L15.9104 51.2425C16.1141 51.251 16.2428 51.4265 16.2356 51.5962L16.0821 55.2626C15.9258 58.997 12.7778 61.8919 9.00952 61.7341C5.30912 61.5792 2.41421 58.4312 2.57057 54.6969L3.01693 44.037C3.17329 40.3027 6.32123 37.4078 10.0216 37.5627C13.7899 37.7205 16.6848 40.8684 16.5285 44.6028L16.3664 48.4729C16.3579 48.6766 16.2164 48.8067 16.0127 48.7982L11.0562 48.5907C10.8525 48.5821 10.7564 48.4421 10.7649 48.2384L10.927 44.3682C10.954 43.7232 10.4321 43.1912 9.78708 43.1642Z" fill="#F1F1F1"/>
<path d="M23.3592 30.4231L24.6031 47.8436C24.6176 48.0469 24.7604 48.1389 24.9299 48.1268L27.404 47.9502C27.6074 47.9357 27.7889 48.093 27.801 48.2625L28.1568 53.2446C28.1713 53.448 28.0115 53.5956 27.8081 53.6102L19.7079 54.1885C19.5385 54.2006 19.3593 54.0772 19.3448 53.8738L17.6992 30.8272C17.6871 30.6577 17.8445 30.4762 18.014 30.4641L22.9961 30.1083C23.1656 30.0962 23.3471 30.2536 23.3592 30.4231Z" fill="#F1F1F1"/>
<path d="M36.6114 58.1225C37.2566 58.1452 37.7487 57.6865 37.7713 57.0413L38.3659 40.0965C38.3707 39.9607 38.5464 39.7968 38.6823 39.8016L43.674 39.9768C43.8098 39.9815 43.9737 40.1573 43.9689 40.2931L43.3743 57.2379C43.2432 60.9732 40.1501 63.8566 36.4148 63.7255C32.7474 63.5968 29.7961 60.5013 29.9271 56.766L30.5217 39.8212C30.5265 39.6854 30.7023 39.5216 30.906 39.5287L35.8298 39.7015C35.9996 39.7075 36.1295 39.882 36.1247 40.0179L35.5301 56.9626C35.5075 57.6078 36.0002 58.1011 36.6114 58.1225Z" fill="#F1F1F1"/>
<path d="M56.6093 39.4931C58.4053 40.6252 59.7319 42.6082 60.0278 44.8311C60.5612 48.8392 57.6998 52.5793 53.6917 53.1128L47.2249 53.9735C47.0565 53.9959 46.8657 53.8499 46.8433 53.6815L43.7903 30.7445C43.7679 30.5761 43.9184 30.419 44.0868 30.3966L50.8904 29.491C54.2586 29.0427 57.3454 31.3741 57.7937 34.7422C58.0134 36.3926 57.5729 38.2337 56.6093 39.4931ZM49.5191 36.7005C49.6357 37.5762 50.399 38.1602 51.2747 38.0437C52.1167 37.9316 52.768 37.1593 52.6515 36.2836C52.5394 35.4416 51.6998 34.7992 50.8578 34.9113C49.982 35.0278 49.407 35.8585 49.5191 36.7005ZM51.9526 48.5453C53.484 48.2044 54.2748 46.4195 54.0955 45.0723C53.9162 43.725 52.6816 42.1754 51.1233 42.3143C50.9885 42.3322 50.9257 42.3749 50.9436 42.5096L51.7281 48.4038C51.7416 48.5049 51.8179 48.5633 51.9526 48.5453Z" fill="#F1F1F1"/>
</svg>
