<svg fill="none" height="137" viewBox="0 0 134 137" width="134" xmlns="http://www.w3.org/2000/svg"><path d="m60.3229 23.539c6.5515-6.5515 1.4039-20.35637 12.635-22.696177 8.8913-1.871833 8.6573 5.615547 15.9107 7.487377 6.0835 1.63788 11.9334-6.08348 20.1224-2.57377 5.849 2.57378 6.551 10.52917 3.978 14.97477-3.042 5.1476-8.424 10.2951-9.126 17.3146-.702 6.5514 3.276 10.5291 1.17 17.3145-3.041 9.5932-16.6124 13.3369-18.0163 21.5263-1.6378 9.3592 4.9136 18.9524 13.1033 19.6543 9.359.702 12.401-7.7213 20.59-12.4009 7.019-3.9777 16.379 2.1058 12.167 12.167-4.212 10.295-13.571 9.827-20.356 17.315-7.488 8.189-11.699 24.801-24.8023 22.228-9.8272-1.872-10.5292-15.911-6.3175-27.376 3.9777-10.7632-10.2951-14.0389-14.9748-3.978-4.2116 9.126-6.0835 23.398-17.5485 24.1-8.4233.468-12.635-8.189-17.5486-9.359-4.6796-1.17-15.4427.702-20.8243-1.404-17.08054-6.785-10.997046-33.693 3.2758-36.2668 7.4874-1.4039 11.231 2.3398 17.3145-.936 5.6156-3.0417 3.5098-14.7407 12.635-17.0805 8.8913-2.3398 14.0388 2.8077 23.3981 2.3398 21.9942-1.1699 27.6097-44.6904 19.6544-47.0302-7.7214-2.3398-17.3146 30.4175-35.0971 33.4593-16.3787 2.8078-25.7379-12.401-13.103-20.8243 6.0835-3.7437 15.9107-2.1058 21.7602-7.9553zm-38.6068 75.8097c-.234 2.3403 1.1699 5.1473 7.4874 5.8493 14.0388 1.638 26.2058-5.6153 28.0777-12.6347 1.6378-6.3175-.9359-9.3593-5.1476-9.8272-5.1476-.468-7.7214 8.1893-16.6126 11.465-6.3175 2.3398-13.3369.468-13.8049 5.1476z" fill="#fff"/></svg>