<svg fill="none" height="131" viewBox="0 0 94 131" width="94" xmlns="http://www.w3.org/2000/svg"><path d="m93.5306 126.66c0 .936-1.1699 2.106-2.3398 2.106h-24.1c-1.4039 0-2.3399-1.17-2.3399-2.106v-2.808c-3.9776 3.276-11.465 6.552-20.3563 6.552-24.334 0-43.98835-21.292-43.98835-45.8604 0-21.2922 14.97475-38.8408 35.09715-43.0525 6.3174-1.6378 12.6349-.9359 15.2087-.9359 1.8719 0 5.1476.9359 6.0835-2.1058.9359-4.4456-4.6796-5.6155-6.3175-5.6155-13.3369-1.1699-26.4398 1.8718-37.4369 9.1252l-1.6379 1.4039c-1.40384 1.4039-2.57374.7019-2.57374-.234v-2.3398-28.3117c.23398-2.3398 2.33984-3.50967 2.33984-3.50967 9.5932-5.38155 24.5679-7.95535 35.799-8.657283 25.7379 0 46.5622 12.166953 46.5622 48.200053zm-49.37-30.8853c5.6156 0 10.5292-4.6796 10.5292-10.7631 0-5.6156-4.9136-10.5292-10.5292-10.5292-6.0835 0-10.7631 4.9136-10.7631 10.5292 0 6.0835 4.6796 10.7631 10.7631 10.7631z" fill="#fff"/></svg>