<svg fill="none" height="162" viewBox="0 0 68 162" width="68" xmlns="http://www.w3.org/2000/svg"><path d="m26.7578 158.22c-2.4264 2.253-5.4595 3.38-9.0992 3.38-10.05252 0-15.07877-6.153-15.07877-18.459v-17.938c0-6.24.95325-11.613 2.85976-16.119s4.59291-8.666 8.05931-12.4789c3.4664-3.813 8.7526-9.0125 15.8587-15.5987l4.6796-4.4196v-48.096c0-4.1597-.6932-6.9328-2.0798-8.3194-1.3865-1.3865-4.2463-2.0798-8.5793-2.0798-6.4128 0-10.8324 1.2999-13.2589 3.8997-2.42646 2.4265-3.63969 6.0662-3.63969 10.9191 0 5.7195 1.73319 11.6124 5.19959 17.6785 3.4664 6.0662 10.3125 14.2122 20.5383 24.438h-24.95796c-4.50629-10.7458-6.75944-23.8313-6.75944-39.2567 0-5.5463 1.29989-11.0058 3.89968-16.3787 2.59978-5.5462 6.15282-10.05249 10.65912-13.51887 4.5063-3.6397 9.3592-5.459544 14.5588-5.459544 7.4527 0 13.0856 1.906504 16.8986 5.719514 3.813 3.63971 5.7195 8.8393 5.7195 15.5987v106.5917c0 6.412.4333 10.659 1.2999 12.738 1.0399 1.907 2.4265 2.86 4.1597 2.86 1.3865 0 2.4264-.693 3.1197-2.08.6933-1.386 1.1266-4.073 1.2999-8.059l.78-45.4962h3.6397l.7799 44.4562c.1733 9.186-.7799 16.292-2.8598 21.318-2.0798 5.027-5.9795 7.54-11.699 7.54-4.6796 0-8.0593-1.733-10.1392-5.2-2.0798-3.639-3.1197-10.312-3.1197-20.018 0-2.773.3466-9.186 1.0399-19.239l-2.5998-.52c-1.2132 12.479-2.7731 22.012-4.6796 28.598-1.9065 6.413-4.073 10.746-6.4995 12.999zm-5.9795-21.838c0 4.16 1.4732 6.239 4.4197 6.239 2.7731 0 4.9396-3.553 6.4994-10.659 1.5599-7.279 2.3398-16.985 2.3398-29.117v-20.7987c-5.3729 5.1996-8.9259 9.7926-10.6591 13.7789-1.7332 3.813-2.5998 8.6658-2.5998 14.5588z" fill="#fff"/></svg>