<svg fill="none" height="130" viewBox="0 0 110 130" width="110" xmlns="http://www.w3.org/2000/svg"><path d="m36.1815 129.275c-6.2395 0-12.167-1.092-17.7826-3.275-5.4595-2.34-9.90515-5.928-13.33687-10.764-3.27573-4.991-4.913592-11.465-4.913592-19.4199 0-7.3314 1.403882-13.2589 4.211652-17.7826 2.80777-4.6796 6.62941-8.4233 11.46501-11.231 4.8356-2.9638 10.2172-5.2256 16.1447-6.7855 6.0835-1.5598 12.323-2.8857 18.7185-3.9776 8.4233-1.4039 14.7408-2.5738 18.9524-3.5097 4.2117-.936 7.0194-2.0279 8.4233-3.2758 1.4039-1.4039 2.1058-3.2757 2.1058-5.6155 0-6.0835-2.1058-10.7631-6.3174-14.0389-4.2117-3.2757-9.5933-4.9136-16.1447-4.9136-4.0557 0-8.0333.78-11.933 2.3399-3.8997 1.5598-7.1754 4.1336-9.8272 7.7213s-4.0557 8.5013-4.2117 14.7408l-26.67377-2.5738c.15599-8.8912 1.79386-16.3006 4.9136-22.2282 3.27577-6.0835 7.48737-10.8411 12.63497-14.2728 5.3035-3.58768 11.0751-6.08347 17.3146-7.48736 6.2394-1.55987 12.4009-2.339802 18.4844-2.339802 10.7631 0 19.8884 2.027832 27.3758 6.083492 7.6433 4.05567 13.4149 9.98317 17.3146 17.78257 3.9 7.7993 5.849 17.5485 5.849 29.2476v22.4621c.156 5.4596.234 10.9971.234 16.6126v16.8467 16.379h-26.2054c.156-6.396.312-12.713.468-18.953.3119-6.239.5459-12.7908.7019-19.6542h-1.6379c-.7799 7.6434-3.2757 14.6632-7.4873 21.0582-4.0557 6.396-9.4373 11.465-16.1447 15.209-6.5515 3.743-14.1168 5.615-22.6961 5.615zm10.7631-22.696c3.7437 0 7.4874-.702 11.2311-2.106 3.8996-1.56 7.4873-3.899 10.7631-7.0191 3.2757-3.1197 5.9275-7.0974 7.9553-11.933s3.1197-10.5291 3.2757-17.0806v-5.6155l6.3175-1.1699c-1.5599 2.1838-4.0556 3.8997-7.4874 5.1476-3.2757 1.2479-7.0974 2.2618-11.465 3.0417-4.2117.78-8.5013 1.5599-12.869 2.3398-4.3676.78-8.4233 1.8719-12.167 3.2758-3.7436 1.4039-6.7854 3.3537-9.1252 5.8495s-3.5097 5.8495-3.5097 10.0611c0 4.8356 1.5599 8.5793 4.6796 11.2316 3.1197 2.651 7.2534 3.977 12.401 3.977z" fill="#fff"/></svg>