<svg fill="none" height="124" viewBox="0 0 103 124" width="103" xmlns="http://www.w3.org/2000/svg"><path d="m17.8216 123.105c-5.6155 0-9.98318-2.417-13.10292-7.253-3.11975-4.836-4.6796175-11.933-4.6796175-21.2921 0-8.8913 1.2478975-17.7826 3.7436875-26.6739 2.4958-9.0472 5.92752-17.6265 10.29515-25.7378 4.3676-8.1114 9.2812-15.2868 14.7408-21.5263 5.6155-6.2394 11.465-11.15303 17.5485-14.74074 6.2395-3.74369 12.401-5.615535 18.4845-5.615535 2.9638 0 5.7715.62395 8.4233 1.871845 2.6518 1.09191 4.8356 2.88576 6.5515 5.38156.9359 1.40389 1.8718 2.10583 2.8078 2.10583.9359 0 1.8718-.70194 2.8077-2.10583 1.7159-2.4958 3.1198-4.05567 4.2117-4.67961 1.0919-.77994 2.1058-1.16991 3.0417-1.16991 2.0279 0 2.8078 1.09191 2.3398 3.27573l-20.8243 89.61466c-2.3398 10.1391-.7799 15.2091 4.6797 15.2091 3.5877 0 6.7854-2.418 9.5932-7.254 2.9637-4.8354 5.9275-12.3228 8.8912-22.462.468-1.7158 1.4819-2.5737 3.042-2.5737 1.092 0 1.794.4679 2.106 1.4038.312.936.312 2.0279 0 3.2758-2.9641 14.6628-6.9418 25.1921-11.9334 31.5871-4.9916 6.24-10.9971 9.359-18.0165 9.359-6.0835 0-10.4512-2.573-13.1029-7.721-2.4958-5.147-2.7298-12.167-.702-21.0581l3.0418-12.869c.3119-1.0919.078-1.7158-.702-1.8718-.6239-.156-1.1699.234-1.6378 1.1699-8.5793 15.7547-16.2227 26.752-22.9301 32.991-6.5515 6.24-12.791 9.359-18.7185 9.359zm5.8495-11.933c3.7437 0 7.8774-2.261 12.401-6.785 4.5236-4.5236 8.9693-10.3731 13.3369-17.5485 4.5236-7.1754 8.6573-14.8968 12.401-23.1641s6.7074-16.2227 8.8912-23.866c2.3398-7.6434 3.5097-14.1169 3.5097-19.4204 0-9.5152-3.3537-14.27286-10.0611-14.27286-4.0557 0-8.3453 1.87185-12.869 5.61556-4.5236 3.5877-8.8912 8.5013-13.1029 14.7408-4.0556 6.2394-7.7993 13.3369-11.2311 21.2922-3.2757 7.7994-5.9275 15.9887-7.9553 24.568-2.0278 8.4233-3.0418 16.6906-3.0418 24.8019 0 5.4594.624 9.2034 1.8719 11.2314 1.4039 1.872 3.3537 2.807 5.8495 2.807z" fill="#fff"/></svg>